<svg width="430" height="430" viewBox="0 0 430 430" fill="none" xmlns="http://www.w3.org/2000/svg">
<path d="M338.75 183.62V223.72V237.72C338.75 247.533 334.852 256.944 327.913 263.883C320.974 270.821 311.563 274.72 301.75 274.72H280.85C296.75 290.22 290.25 321.62 287.45 334.82C290.423 339.698 291.981 345.307 291.95 351.02V353.12C291.948 358.98 289.618 364.6 285.474 368.744C281.33 372.888 275.711 375.217 269.85 375.22H251.05C245.694 375.213 240.522 373.263 236.494 369.732C232.467 366.201 229.857 361.329 229.15 356.02C216.75 359.82 204.45 361.32 188.75 361.32C172.75 361.32 160.45 359.52 148.15 355.32C147.112 360.303 144.386 364.775 140.433 367.982C136.479 371.188 131.54 372.932 126.45 372.92H107.75C101.89 372.917 96.27 370.588 92.1261 366.444C87.9821 362.3 85.6528 356.68 85.6502 350.82V348.72C85.6159 343.964 86.7127 339.268 88.8502 335.02C86.3502 321.92 80.3502 290.22 96.3502 274.72C96.3502 260.22 98.3502 246.22 102.85 233.42C98.9593 225.915 97.5503 217.369 98.8262 209.013C100.102 200.657 103.997 192.921 109.95 186.92C112.077 184.807 114.953 183.621 117.95 183.621C120.948 183.621 123.824 184.807 125.95 186.92L132.35 193.42C132.464 193.296 132.6 193.194 132.75 193.12C114.25 179.22 113.85 156.42 114.05 134.12C114.05 130.92 114.15 127.72 114.15 124.52C114.15 123.22 114.25 122.02 114.35 120.72C112.15 115.22 93.7502 66.1196 108.15 56.8196C118.85 49.9196 140.25 64.5196 154.65 78.3196C176.68 70.3195 200.821 70.3195 222.85 78.3196C237.25 64.5196 258.75 49.9196 269.35 56.8196C283.85 66.2196 265.45 115.32 263.15 120.72C263.25 121.92 263.35 123.22 263.35 124.52C263.35 127.72 263.35 130.92 263.45 134.12C263.65 154.92 263.35 176.02 248.45 190.02C258.85 198.12 262.35 209.72 269.85 223.72H287.75V183.5C287.75 170.4 286.55 157.3 283.05 144.7C282.566 142.907 282.33 141.056 282.35 139.2C282.35 128 291.35 118.5 303.65 115.2C309.713 113.634 316.071 113.599 322.15 115.1C334.95 118.2 344.15 127.9 344.15 139.2C344.137 141.061 343.868 142.912 343.35 144.7C340 157.32 338.75 170.5 338.75 183.62Z" fill="#EBE6EF"/>
<g style="mix-blend-mode:multiply" opacity="0.5">
<path d="M116.05 249.22C114.469 257.627 113.699 266.166 113.75 274.72C102.25 285.92 102.05 305.42 103.85 320.32C97.2919 323.325 91.9873 328.524 88.85 335.02C86.35 321.92 80.35 290.22 96.35 274.72C96.2071 260.68 98.4385 246.716 102.95 233.42C104.801 237.001 107.196 240.273 110.05 243.12L116.05 249.22Z" fill="#EBE6EF"/>
</g>
<path d="M248.45 190.02V230.5C248.454 238.707 246.736 246.824 243.408 254.326C240.079 261.828 235.213 268.548 229.125 274.052C223.037 279.556 215.861 283.721 208.063 286.279C200.264 288.836 192.015 289.729 183.85 288.9C184.95 288.1 154.95 293.7 140.55 250.3C133.15 228 132.25 193.3 132.25 193.3C132.364 193.176 132.5 193.074 132.65 193C141.55 199.7 154.65 204.3 173.95 205.8C174.103 209.611 175.733 213.214 178.495 215.846C181.258 218.477 184.935 219.931 188.75 219.9C192.55 219.879 196.198 218.409 198.949 215.788C201.7 213.167 203.346 209.594 203.55 205.8C225.65 204.12 239.55 198.32 248.45 190.02Z" fill="#08A88A"/>
<g style="mix-blend-mode:multiply" opacity="0.5">
<path d="M202.05 287.92C195.983 289.282 189.736 289.654 183.55 289.02C184.65 288.22 154.65 293.82 140.25 250.42C132.85 228.12 131.95 193.42 131.95 193.42C132.064 193.297 132.2 193.195 132.35 193.12C138.95 198.12 147.95 201.92 160.05 204.22C160.85 216.22 162.95 235.92 167.75 250.42C177 277.72 192.35 285.62 202.05 287.92Z" fill="#08A88A"/>
</g>
<g style="mix-blend-mode:multiply" opacity="0.5">
<path d="M172.65 205.82C154.25 204.12 141.55 199.62 132.95 193.12C114.45 179.22 114.05 156.42 114.25 134.12C114.25 130.92 114.35 127.72 114.35 124.52C114.35 123.22 114.45 122.02 114.55 120.72C112.35 115.22 93.9498 66.1202 108.35 56.8202C114.15 53.0202 123.15 55.7202 132.45 61.0202C125.05 76.5202 140.05 118.32 142.05 123.42C141.95 124.72 141.85 126.02 141.85 127.32C141.85 130.62 141.85 134.02 141.75 137.32C141.55 160.52 141.85 184.32 160.45 198.72C164.142 201.678 168.254 204.071 172.65 205.82Z" fill="#EBE6EF"/>
</g>
<path d="M188.15 285.22C186.814 286.562 185.377 287.799 183.85 288.92C172.15 297.52 157.15 298.02 148.45 289.32C147.124 288.013 145.981 286.533 145.05 284.92C138.55 273.52 130.15 263.42 120.95 254.12L109.95 243.12C107.096 240.273 104.701 237.001 102.85 233.42C98.9592 225.915 97.5503 217.37 98.8262 209.013C100.102 200.657 103.997 192.921 109.95 186.92C112.077 184.807 114.952 183.621 117.95 183.621C120.948 183.621 123.824 184.807 125.95 186.92L132.35 193.42L157.05 218.12C166.183 227.464 176.505 235.566 187.75 242.22C189.385 243.117 190.869 244.264 192.15 245.62C202.05 255.42 200.25 273.12 188.15 285.22Z" fill="#EBE6EF"/>
<g style="mix-blend-mode:multiply" opacity="0.5">
<path d="M171.55 294.82C162.95 296.92 154.35 295.22 148.45 289.32C147.124 288.013 145.981 286.533 145.05 284.92C138.55 273.52 130.15 263.42 120.95 254.12L109.95 243.12C107.096 240.273 104.701 237.001 102.85 233.42C98.9592 225.915 97.5503 217.37 98.8262 209.013C100.102 200.657 103.997 192.921 109.95 186.92C111.879 184.992 114.442 183.829 117.163 183.645C119.884 183.461 122.579 184.269 124.75 185.92C124.35 186.22 123.95 186.62 123.55 186.92C117.554 192.895 113.63 200.634 112.353 209.002C111.075 217.37 112.511 225.927 116.45 233.42C118.301 237.001 120.696 240.273 123.55 243.12L134.55 254.12C143.85 263.42 152.25 273.52 158.65 284.92C159.547 286.554 160.695 288.039 162.05 289.32C164.665 291.973 167.947 293.873 171.55 294.82Z" fill="#EBE6EF"/>
</g>
<path d="M203.55 205.22V205.82C203.353 209.612 201.708 213.184 198.954 215.798C196.2 218.413 192.547 219.87 188.75 219.87C184.953 219.87 181.301 218.413 178.547 215.798C175.793 213.184 174.147 209.612 173.95 205.82V205.22C173.95 201.295 175.509 197.53 178.285 194.755C181.061 191.979 184.825 190.42 188.75 190.42C192.675 190.42 196.44 191.979 199.215 194.755C201.991 197.53 203.55 201.295 203.55 205.22Z" fill="#FFC738"/>
<g style="mix-blend-mode:multiply" opacity="0.5">
<path d="M193.25 219.32C191.802 219.811 190.279 220.047 188.75 220.02C184.959 219.987 181.323 218.511 178.583 215.891C175.842 213.271 174.203 209.705 174 205.92V205.32C173.996 203.375 174.376 201.449 175.119 199.651C175.861 197.854 176.951 196.221 178.326 194.846C179.701 193.471 181.334 192.381 183.132 191.638C184.929 190.896 186.855 190.516 188.8 190.52C190.329 190.492 191.852 190.729 193.3 191.22C190.307 192.17 187.695 194.049 185.843 196.585C183.991 199.12 182.995 202.18 183 205.32V205.92C183.112 208.939 184.158 211.85 185.994 214.25C187.83 216.65 190.365 218.422 193.25 219.32Z" fill="#FFC738"/>
</g>
<g style="mix-blend-mode:multiply" opacity="0.5">
<path d="M148.55 348.72V350.82C148.532 352.333 148.364 353.84 148.05 355.32C147.012 360.303 144.286 364.776 140.332 367.982C136.379 371.189 131.44 372.933 126.35 372.92H107.55C101.69 372.917 96.0698 370.588 91.9259 366.444C87.7819 362.3 85.4527 356.681 85.45 350.82V348.72C85.4157 343.964 86.5125 339.269 88.65 335.02C91.2224 329.755 95.2182 325.315 100.185 322.204C105.151 319.094 110.89 317.436 116.75 317.42H117.15C121.269 317.407 125.35 318.207 129.159 319.774C132.968 321.341 136.43 323.644 139.347 326.552C142.264 329.46 144.579 332.915 146.158 336.719C147.737 340.523 148.55 344.601 148.55 348.72Z" fill="#EBE6EF"/>
</g>
<g style="mix-blend-mode:multiply" opacity="0.5">
<path d="M291.85 351.02V353.12C291.848 358.981 289.518 364.601 285.374 368.745C281.23 372.889 275.611 375.218 269.75 375.22H251.05C245.694 375.214 240.522 373.264 236.494 369.733C232.467 366.202 229.857 361.33 229.15 356.02C229.03 355.058 228.964 354.09 228.95 353.12V351.02C228.948 346.909 229.755 342.838 231.327 339.039C232.899 335.241 235.205 331.789 238.112 328.882C241.019 325.975 244.47 323.67 248.269 322.098C252.068 320.526 256.139 319.718 260.25 319.72H260.65C264.763 319.694 268.841 320.486 272.645 322.05C276.449 323.615 279.903 325.921 282.807 328.835C285.711 331.748 288.006 335.21 289.558 339.019C291.111 342.827 291.89 346.907 291.85 351.02Z" fill="#EBE6EF"/>
</g>
<path d="M258.85 105.72C258.95 85.6204 235.05 80.7204 235.05 80.7204C243.55 72.6204 256.15 64.0204 262.45 68.0204C271.05 73.6204 260.15 102.5 258.85 105.72Z" fill="#F24C00"/>
<path d="M118.65 105.72C118.55 85.6204 142.45 80.7204 142.45 80.7204C133.95 72.6204 121.35 64.0204 115.05 68.0204C106.45 73.6204 117.35 102.5 118.65 105.72Z" fill="#F24C00"/>
<path d="M303.646 134.02V115.22" stroke="#121331" stroke-width="7" stroke-miterlimit="10" stroke-linecap="round" stroke-linejoin="round"/>
<path d="M322.146 134.019V115.119" stroke="#121331" stroke-width="7" stroke-miterlimit="10" stroke-linecap="round" stroke-linejoin="round"/>
<path d="M248.446 190.02V230.52C248.446 246.72 241.846 261.42 231.246 272.02C220.646 282.62 205.946 289.22 189.746 289.22C187.746 289.22 185.846 289.12 183.846 288.92" stroke="#121331" stroke-width="7" stroke-miterlimit="10" stroke-linecap="round" stroke-linejoin="round"/>
<path d="M107.846 373.019V358.319" stroke="#121331" stroke-width="7" stroke-miterlimit="10" stroke-linecap="round" stroke-linejoin="round"/>
<path d="M126.346 373.019V358.319" stroke="#121331" stroke-width="7" stroke-miterlimit="10" stroke-linecap="round" stroke-linejoin="round"/>
<path d="M132.346 193.32C132.446 193.22 132.646 193.12 132.746 193.02" stroke="#121331" stroke-width="7" stroke-miterlimit="10" stroke-linecap="round" stroke-linejoin="round"/>
<path d="M248.446 190.02C258.846 198.12 262.346 209.72 269.846 223.72H287.746V183.52C287.746 170.42 286.446 157.32 283.046 144.72C282.546 142.92 282.346 141.12 282.346 139.22C282.346 128.02 291.246 118.52 303.646 115.22C306.646 114.42 309.946 114.02 313.246 114.02C330.346 114.02 344.246 125.32 344.246 139.22C344.246 141.12 343.946 142.92 343.446 144.72C340.046 157.32 338.746 170.52 338.746 183.62V223.72V237.72C338.746 258.12 322.146 274.72 301.746 274.72H280.746" stroke="#121331" stroke-width="7" stroke-miterlimit="10" stroke-linecap="round" stroke-linejoin="round"/>
<path d="M102.846 233.42C98.3456 246.22 96.2456 260.32 96.2456 274.72" stroke="#121331" stroke-width="7" stroke-miterlimit="10" stroke-linecap="round" stroke-linejoin="round"/>
<path d="M251.146 375.219V360.619" stroke="#121331" stroke-width="7" stroke-miterlimit="10" stroke-linecap="round" stroke-linejoin="round"/>
<path d="M269.646 375.219V360.619" stroke="#121331" stroke-width="7" stroke-miterlimit="10" stroke-linecap="round" stroke-linejoin="round"/>
<path d="M148.046 355.42C160.346 359.62 172.746 361.42 188.746 361.42C204.446 361.42 216.746 359.92 229.146 356.12" stroke="#121331" stroke-width="7" stroke-miterlimit="10" stroke-linecap="round" stroke-linejoin="round"/>
<path d="M126.446 373.02H107.746C95.546 373.02 85.646 363.12 85.646 350.92V348.82C85.646 331.52 99.646 317.52 116.946 317.52H117.346C134.646 317.52 148.646 331.52 148.646 348.82V350.92C148.546 363.12 138.646 373.02 126.446 373.02Z" stroke="#121331" stroke-width="7" stroke-miterlimit="10" stroke-linecap="round" stroke-linejoin="round"/>
<path d="M269.746 375.22H251.046C238.846 375.22 228.946 365.32 228.946 353.12V351.02C228.946 333.72 242.946 319.72 260.246 319.72H260.646C277.946 319.72 291.946 333.72 291.946 351.02V353.12C291.946 365.32 282.046 375.22 269.746 375.22Z" stroke="#121331" stroke-width="7" stroke-miterlimit="10" stroke-linecap="round" stroke-linejoin="round"/>
<path d="M203.546 205.92C225.646 204.12 239.646 198.32 248.446 190.02C263.346 176.02 263.646 154.82 263.446 134.12C263.446 130.92 263.346 127.72 263.346 124.52C263.346 123.22 263.246 122.02 263.146 120.72C265.346 115.32 283.846 66.1196 269.346 56.8196C258.746 49.9196 237.246 64.5196 222.846 78.3196C212.646 74.5196 201.046 72.3196 188.746 72.3196C176.446 72.3196 164.846 74.5196 154.646 78.3196C140.246 64.5196 118.746 49.9196 108.146 56.8196C93.7458 66.2196 112.046 115.32 114.346 120.72C114.246 122.02 114.146 123.22 114.146 124.52C114.146 127.72 114.146 130.92 114.046 134.12C113.846 156.42 114.246 179.22 132.746 193.12C141.646 199.82 154.746 204.42 174.046 205.92" stroke="#121331" stroke-width="7" stroke-miterlimit="10" stroke-linecap="round" stroke-linejoin="round"/>
<path d="M148.446 289.319C147.146 288.019 145.946 286.519 145.046 284.919C138.546 273.519 130.146 263.419 120.846 254.119L109.846 243.119C94.3457 227.619 94.3457 202.419 109.846 186.919C114.246 182.519 121.346 182.519 125.746 186.919L156.946 218.119C166.146 227.319 176.346 235.719 187.646 242.219C189.246 243.119 190.746 244.219 192.046 245.619C201.846 255.419 200.046 273.219 188.046 285.319C176.046 297.319 158.346 299.119 148.446 289.319Z" stroke="#121331" stroke-width="7" stroke-miterlimit="10" stroke-linecap="round" stroke-linejoin="round"/>
<path d="M280.746 274.72C296.746 290.22 290.146 321.82 287.346 335.02" stroke="#121331" stroke-width="7" stroke-miterlimit="10" stroke-linecap="round" stroke-linejoin="round"/>
<path d="M88.7458 335.12C86.2458 322.12 80.1458 290.32 96.2458 274.72" stroke="#121331" stroke-width="7" stroke-miterlimit="10" stroke-linecap="round" stroke-linejoin="round"/>
<path d="M175.746 155.119C175.746 159.319 188.746 165.519 188.746 165.519C188.746 165.519 201.746 159.319 201.746 155.119" stroke="#121331" stroke-width="7" stroke-miterlimit="10" stroke-linecap="round" stroke-linejoin="round"/>
<path d="M188.746 220.02C196.92 220.02 203.546 213.394 203.546 205.22C203.546 197.046 196.92 190.42 188.746 190.42C180.572 190.42 173.946 197.046 173.946 205.22C173.946 213.394 180.572 220.02 188.746 220.02Z" stroke="#121331" stroke-width="7" stroke-miterlimit="10" stroke-linecap="round" stroke-linejoin="round"/>
<path d="M223.546 139.32C236.909 134.478 251.585 133.669 263.124 134.076" stroke="#121331" stroke-width="7" stroke-miterlimit="10" stroke-linecap="round" stroke-linejoin="round"/>
<path d="M223.546 158.72C239.746 156.52 256.846 164.02 256.846 164.02" stroke="#121331" stroke-width="7" stroke-miterlimit="10" stroke-linecap="round" stroke-linejoin="round"/>
<path d="M154.346 139.32C140.928 134.458 126.186 133.662 114.625 134.081" stroke="#121331" stroke-width="7" stroke-miterlimit="10" stroke-linecap="round" stroke-linejoin="round"/>
<path d="M154.346 158.72C138.146 156.52 121.046 164.02 121.046 164.02" stroke="#121331" stroke-width="7" stroke-miterlimit="10" stroke-linecap="round" stroke-linejoin="round"/>
</svg>
